<svg xmlns="http://www.w3.org/2000/svg" viewBox="0 0 1200 300" role="img" aria-labelledby="title description">
  <!-- Generated from assets/stack.svg by scripts/generate-theme-assets.mjs. -->
  <title id="title">Wheakerd's systems toolbox</title>
  <desc id="description">A self-hosted visual map of runtime, systems, data, and delivery technologies.</desc>
  <defs>
    <linearGradient id="bg" x1="0" y1="0" x2="1" y2="1">
      <stop offset="0" stop-color="#f8fafc" />
      <stop offset="1" stop-color="#eef4f8" />
    </linearGradient>
    <linearGradient id="line" x1="0" y1="0" x2="1" y2="0">
      <stop offset="0" stop-color="#0f766e" />
      <stop offset="0.5" stop-color="#2563eb" />
      <stop offset="1" stop-color="#7c3aed" />
    </linearGradient>
    <pattern id="dots" width="20" height="20" patternUnits="userSpaceOnUse">
      <circle cx="1" cy="1" r="1" fill="#64748b" fill-opacity="0.1" />
    </pattern>
  </defs>

  <style>
    text { font-family: "JetBrains Mono", "Fira Code", "Cascadia Code", Consolas, monospace; }
    .group { fill: #475569; font-size: 11px; font-weight: 700; letter-spacing: 2px; }
    .tech { fill: #1e293b; font-size: 15px; font-weight: 650; }
    .tile { fill: #ffffff; stroke: #cbd5e1; }
    .tile:hover { stroke: #0d9488; }
  </style>

  <rect width="1200" height="300" rx="24" fill="url(#bg)" />
  <rect width="1200" height="300" rx="24" fill="url(#dots)" />
  <rect x="1" y="1" width="1198" height="298" rx="23" fill="none" stroke="#cbd5e1" />

  <text x="36" y="38" fill="#0f172a" font-size="17" font-weight="750" letter-spacing="2">SYSTEM STACK // BUILD LAYERS</text>
  <path d="M36 54h1128" stroke="url(#line)" stroke-width="2" opacity="0.72" />

  <text class="group" x="36" y="82">APPLICATION</text>
  <text class="group" x="421" y="82">SYSTEMS</text>
  <text class="group" x="806" y="82">DATA + DELIVERY</text>

  <g transform="translate(36 94)">
    <g><rect class="tile" width="168" height="48" rx="12" /><circle cx="22" cy="24" r="6" fill="#777bb4" /><text class="tech" x="38" y="29">PHP</text></g>
    <g transform="translate(184)"><rect class="tile" width="168" height="48" rx="12" /><circle cx="22" cy="24" r="6" fill="#22d3ee" /><text class="tech" x="38" y="29">Swoole</text></g>
    <g transform="translate(0 64)"><rect class="tile" width="168" height="48" rx="12" /><circle cx="22" cy="24" r="6" fill="#f59e0b" /><text class="tech" x="38" y="29">Hyperf</text></g>
    <g transform="translate(184 64)"><rect class="tile" width="168" height="48" rx="12" /><circle cx="22" cy="24" r="6" fill="#38bdf8" /><text class="tech" x="38" y="29">TypeScript</text></g>
    <g transform="translate(0 128)"><rect class="tile" width="168" height="48" rx="12" /><circle cx="22" cy="24" r="6" fill="#42b883" /><text class="tech" x="38" y="29">Vue</text></g>
    <g transform="translate(184 128)"><rect class="tile" width="168" height="48" rx="12" /><circle cx="22" cy="24" r="6" fill="#ef4444" /><text class="tech" x="38" y="29">Java</text></g>
  </g>

  <g transform="translate(421 94)">
    <g><rect class="tile" width="168" height="48" rx="12" /><circle cx="22" cy="24" r="6" fill="#00add8" /><text class="tech" x="38" y="29">Go</text></g>
    <g transform="translate(184)"><rect class="tile" width="168" height="48" rx="12" /><circle cx="22" cy="24" r="6" fill="#f97316" /><text class="tech" x="38" y="29">Rust</text></g>
    <g transform="translate(0 64)"><rect class="tile" width="168" height="48" rx="12" /><circle cx="22" cy="24" r="6" fill="#2563eb" /><text class="tech" x="38" y="29">C / C++</text></g>
    <g transform="translate(184 64)"><rect class="tile" width="168" height="48" rx="12" /><circle cx="22" cy="24" r="6" fill="#facc15" /><text class="tech" x="38" y="29">Linux</text></g>
    <g transform="translate(0 128)"><rect class="tile" width="168" height="48" rx="12" /><circle cx="22" cy="24" r="6" fill="#a3e635" /><text class="tech" x="38" y="29">Bash</text></g>
    <g transform="translate(184 128)"><rect class="tile" width="168" height="48" rx="12" /><circle cx="22" cy="24" r="6" fill="#0f172a" /><text class="tech" x="38" y="29">Lua</text></g>
  </g>

  <g transform="translate(806 94)">
    <g><rect class="tile" width="168" height="48" rx="12" /><circle cx="22" cy="24" r="6" fill="#2496ed" /><text class="tech" x="38" y="29">Docker</text></g>
    <g transform="translate(184)"><rect class="tile" width="168" height="48" rx="12" /><circle cx="22" cy="24" r="6" fill="#f05032" /><text class="tech" x="38" y="29">Git</text></g>
    <g transform="translate(0 64)"><rect class="tile" width="168" height="48" rx="12" /><circle cx="22" cy="24" r="6" fill="#dc382d" /><text class="tech" x="38" y="29">Redis</text></g>
    <g transform="translate(184 64)"><rect class="tile" width="168" height="48" rx="12" /><circle cx="22" cy="24" r="6" fill="#4479a1" /><text class="tech" x="38" y="29">MySQL</text></g>
    <g transform="translate(0 128)"><rect class="tile" width="168" height="48" rx="12" /><circle cx="22" cy="24" r="6" fill="#4169e1" /><text class="tech" x="38" y="29">PostgreSQL</text></g>
    <g transform="translate(184 128)"><rect class="tile" width="168" height="48" rx="12" /><circle cx="22" cy="24" r="6" fill="#7c3aed" /><text class="tech" x="38" y="29">CI / CD</text></g>
  </g>
</svg>
